<?xml version="1.0" encoding="utf-8"?>
<!-- Generator: Adobe Illustrator 16.0.0, SVG Export Plug-In . SVG Version: 6.00 Build 0)  -->
<!DOCTYPE svg PUBLIC "-//W3C//DTD SVG 1.1//EN" "http://www.w3.org/Graphics/SVG/1.1/DTD/svg11.dtd">
<svg version="1.1" id="Layer_1" xmlns="http://www.w3.org/2000/svg" xmlns:xlink="http://www.w3.org/1999/xlink" x="0px" y="0px"
	 width="1084px" height="1040px" viewBox="0 0 1084 1040" enable-background="new 0 0 1084 1040" xml:space="preserve">
<g>
	<path fill="#FFFFFF" d="M936.176,519.999c0,217.699-176.479,394.178-394.177,394.178S147.824,737.698,147.824,519.999
		c0-217.695,176.479-394.176,394.176-394.176S936.176,302.304,936.176,519.999z"/>
	<g>
		<g>
			<path fill="#726F00" d="M541.876,513.981c-67.421,1.602-83.174,64.662-144.211,121.941
				c-89.548,84.035-72.664,157.131-17.934,172.424s101.506-46.348,160.935-45.025c0.185,0.004,0.369,0.01,0.553,0.014
				c0.185-0.004,0.368-0.006,0.554-0.01c59.435-1.01,105.886,60.875,160.695,45.871c54.811-15.006,72.078-88.01-17.025-172.516
				C624.708,579.081,609.287,515.938,541.876,513.981z"/>
			
				<ellipse transform="matrix(0.8103 -0.5861 0.5861 0.8103 -236.5178 283.354)" fill="#726F00" cx="319.345" cy="506.948" rx="73.999" ry="114.785"/>
			
				<ellipse transform="matrix(-0.8072 -0.5903 0.5903 -0.8072 1081.499 1369.5303)" fill="#726F00" cx="764.441" cy="508.119" rx="73.999" ry="114.785"/>
			
				<ellipse transform="matrix(0.985 -0.1727 0.1727 0.985 -53.4554 82.6236)" fill="#726F00" cx="448.016" cy="348.459" rx="78.038" ry="121.051"/>
			
				<ellipse transform="matrix(-0.984 -0.1779 0.1779 -0.984 1200.9673 805.6112)" fill="#726F00" cx="636.606" cy="348.956" rx="78.038" ry="121.05"/>
		</g>
		<path fill="#FFFFFF" d="M544.557,633.937c-41.49-91.441-141.519-2.859-2.034,96.275
			C684.091,627.122,589.712,540.831,544.557,633.937z"/>
	</g>
</g>
<g>
	<path fill="#FF504D" d="M4026.604-146.188c-105.169-231.786-284.527-178.697-349.203-61.555
		c-64.677,117.142-2.135,355.013,351.427,606.298c358.844-261.309,406.115-501.289,347.596-616.979
		C4317.906-334.114,4141.063-382.191,4026.604-146.188z"/>
	<g>
		<path fill="#FFFFFF" d="M4127.866,138.908c-41.968-39.803-52.623-83.434-99.203-84.785c-46.588,1.105-57.472,44.682-99.648,84.262
			c-61.877,58.066-50.21,108.574-12.392,119.141c37.817,10.568,70.14-32.023,111.204-31.111c0.128,0.004,0.255,0.006,0.383,0.01
			c0.126-0.002,0.255-0.006,0.382-0.008c41.068-0.697,73.165,42.066,111.039,31.697
			C4177.504,247.744,4189.437,197.299,4127.866,138.908z"/>
		
			<ellipse transform="matrix(0.5861 0.8103 -0.8103 0.5861 1643.7986 -3119.2456)" fill="#FFFFFF" cx="3874.896" cy="49.263" rx="79.316" ry="51.133"/>
		
			<ellipse transform="matrix(0.5903 -0.8072 0.8072 0.5903 1672.9543 3396.3894)" fill="#FFFFFF" cx="4182.453" cy="50.072" rx="79.315" ry="51.132"/>
		
			<ellipse transform="matrix(0.1727 0.985 -0.985 0.1727 3219.8027 -3954.0732)" fill="#FFFFFF" cx="3963.806" cy="-60.251" rx="83.645" ry="53.924"/>
		
			<ellipse transform="matrix(-0.1779 0.984 -0.984 -0.1779 4763.6025 -4099.3652)" fill="#FFFFFF" cx="4094.121" cy="-59.909" rx="83.645" ry="53.923"/>
	</g>
	<path fill="#FF504D" d="M3833.466,79.23"/>
</g>
</svg>
