<?xml version="1.0" encoding="utf-8"?>
<!-- Generator: Adobe Illustrator 16.0.0, SVG Export Plug-In . SVG Version: 6.00 Build 0)  -->
<!DOCTYPE svg PUBLIC "-//W3C//DTD SVG 1.1//EN" "http://www.w3.org/Graphics/SVG/1.1/DTD/svg11.dtd">
<svg version="1.1" id="Layer_1" xmlns="http://www.w3.org/2000/svg" xmlns:xlink="http://www.w3.org/1999/xlink" x="0px" y="0px"
	 width="1084px" height="1040px" viewBox="0 0 1084 1040" enable-background="new 0 0 1084 1040" xml:space="preserve">
<g>
	<g>
		<path fill="#FFFFFF" d="M528.345,519.993c-84.062,1.996-103.701,80.623-179.804,152.039
			c-111.649,104.775-90.6,195.912-22.36,214.98c68.238,19.065,126.561-57.787,200.656-56.14c0.229,0.007,0.461,0.013,0.689,0.019
			c0.229-0.006,0.459-0.01,0.69-0.014c74.104-1.259,132.019,75.899,200.356,57.192c68.338-18.709,89.867-109.731-21.229-215.096
			C631.622,601.159,612.395,522.433,528.345,519.993z"/>
		
			<ellipse transform="matrix(-0.5861 -0.8103 0.8103 -0.5861 -16.2806 1014.1746)" fill="#FFFFFF" cx="250.91" cy="511.246" rx="143.122" ry="92.268"/>
		
			<ellipse transform="matrix(-0.5903 0.8072 -0.8072 -0.5903 1695.2725 164.9151)" fill="#FFFFFF" cx="805.783" cy="512.695" rx="143.118" ry="92.264"/>
		
			<ellipse transform="matrix(-0.1727 -0.985 0.985 -0.1727 173.425 772.9483)" fill="#FFFFFF" cx="411.321" cy="313.642" rx="150.932" ry="97.302"/>
		
			<ellipse transform="matrix(-0.1779 0.984 -0.984 -0.1779 1070.7433 -266.0031)" fill="#FFFFFF" cx="646.484" cy="314.258" rx="150.921" ry="97.294"/>
	</g>
	<path fill="#726F00" d="M531.689,669.556c-51.729-114.012-176.447-3.568-2.535,120.037
		C705.664,661.058,587.99,553.47,531.689,669.556z"/>
</g>
<g>
	<path fill="#FF504D" d="M4181.646,990.253c0,217.698-176.479,394.178-394.177,394.178s-394.177-176.479-394.177-394.178
		c0-217.695,176.479-394.177,394.177-394.177C4005.166,596.076,4181.646,772.557,4181.646,990.253z"/>
	<g>
		<g>
			<path fill="#FFFFFF" d="M3787.346,984.234c-67.421,1.603-83.175,64.662-144.211,121.941
				c-89.548,84.035-72.664,157.131-17.935,172.424c54.73,15.293,101.506-46.348,160.936-45.025c0.185,0.004,0.369,0.01,0.553,0.015
				c0.186-0.005,0.368-0.007,0.554-0.011c59.436-1.01,105.886,60.875,160.695,45.871c54.812-15.006,72.078-88.01-17.024-172.516
				C3870.177,1049.334,3854.757,986.191,3787.346,984.234z"/>
			
				<ellipse transform="matrix(-0.5861 -0.8103 0.8103 -0.5861 4862.583 4438.4512)" fill="#FFFFFF" cx="3565.002" cy="977.179" rx="114.79" ry="74.002"/>
			
				<ellipse transform="matrix(-0.5903 0.8072 -0.8072 -0.5903 7166.3984 -1680.4919)" fill="#FFFFFF" cx="4009.686" cy="978.492" rx="114.786" ry="74"/>
			
				<ellipse transform="matrix(-0.1727 -0.985 0.985 -0.1727 3524.8984 4598.3418)" fill="#FFFFFF" cx="3693.574" cy="818.85" rx="121.054" ry="78.04"/>
			
				<ellipse transform="matrix(-0.1779 0.984 -0.984 -0.1779 5379.1733 -2855.1943)" fill="#FFFFFF" cx="3882.229" cy="819.335" rx="121.044" ry="78.034"/>
		</g>
		<path fill="#FF504D" d="M3790.026,1104.189c-41.49-91.441-141.519-2.859-2.034,96.275
			C3929.561,1097.375,3835.182,1011.084,3790.026,1104.189z"/>
	</g>
</g>
<g>
	<path fill="#FF504D" d="M4026.604-146.188c-105.169-231.786-284.527-178.697-349.203-61.556
		c-64.677,117.143-2.135,355.014,351.427,606.299c358.844-261.31,406.115-501.289,347.596-616.979
		C4317.906-334.114,4141.063-382.191,4026.604-146.188z"/>
	<g>
		<path fill="#FFFFFF" d="M4127.867,138.908c-41.969-39.803-52.623-83.434-99.203-84.785c-46.588,1.105-57.473,44.683-99.648,84.263
			c-61.877,58.065-50.21,108.573-12.393,119.141c37.817,10.568,70.141-32.023,111.205-31.111c0.127,0.004,0.254,0.006,0.383,0.01
			c0.126-0.002,0.255-0.006,0.382-0.008c41.068-0.696,73.165,42.066,111.039,31.697
			C4177.504,247.744,4189.438,197.299,4127.867,138.908z"/>
		
			<ellipse transform="matrix(0.8103 -0.5861 0.5861 0.8103 706.2393 2280.3669)" fill="#FFFFFF" cx="3874.957" cy="49.456" rx="51.135" ry="79.32"/>
		
			<ellipse transform="matrix(-0.8072 -0.5903 0.5903 -0.8072 7528.7148 2558.9036)" fill="#FFFFFF" cx="4182.274" cy="49.871" rx="51.133" ry="79.316"/>
		
			<ellipse transform="matrix(0.985 -0.1727 0.1727 0.985 69.9429 683.6375)" fill="#FFFFFF" cx="3963.699" cy="-60.13" rx="53.925" ry="83.647"/>
		
			<ellipse transform="matrix(0.984 0.1779 -0.1779 0.984 54.6216 -729.3395)" fill="#FFFFFF" cx="4094.209" cy="-60.092" rx="53.921" ry="83.641"/>
	</g>
	<path fill="#FF504D" d="M3833.467,79.23"/>
</g>
</svg>
