<?xml version="1.0" encoding="utf-8"?>
<!-- Generator: Adobe Illustrator 16.0.0, SVG Export Plug-In . SVG Version: 6.00 Build 0)  -->
<!DOCTYPE svg PUBLIC "-//W3C//DTD SVG 1.1//EN" "http://www.w3.org/Graphics/SVG/1.1/DTD/svg11.dtd">
<svg version="1.1" id="Layer_1" xmlns="http://www.w3.org/2000/svg" xmlns:xlink="http://www.w3.org/1999/xlink" x="0px" y="0px"
	 width="1084px" height="1040px" viewBox="0 0 1084 1040" enable-background="new 0 0 1084 1040" xml:space="preserve">
<g>
	<path fill="#FFFFFF" d="M542.383,357.812C437.214,126.026,257.855,179.115,193.18,296.256
		c-64.677,117.142-2.135,355.013,351.427,606.298C903.45,641.246,950.722,401.266,892.202,285.576
		C833.685,169.886,656.841,121.809,542.383,357.812z"/>
	<g>
		<path fill="#726F00" d="M643.645,642.908c-41.968-39.803-52.623-83.434-99.203-84.785c-46.588,1.105-57.472,44.682-99.648,84.262
			c-61.877,58.066-50.21,108.574-12.392,119.141c37.817,10.568,70.14-32.023,111.204-31.111c0.128,0.004,0.255,0.006,0.383,0.01
			c0.126-0.002,0.255-0.006,0.382-0.008c41.068-0.697,73.165,42.066,111.039,31.697
			C693.282,751.744,705.215,701.299,643.645,642.908z"/>
		
			<ellipse transform="matrix(0.5861 0.8103 -0.8103 0.5861 609.9885 -87.5393)" fill="#726F00" cx="390.674" cy="553.263" rx="79.316" ry="51.133"/>
		
			<ellipse transform="matrix(0.5903 -0.8072 0.8072 0.5903 -161.1855 790.5587)" fill="#726F00" cx="698.231" cy="554.072" rx="79.315" ry="51.132"/>
		
			<ellipse transform="matrix(0.1727 0.985 -0.985 0.1727 833.826 -105.2751)" fill="#726F00" cx="479.584" cy="443.749" rx="83.645" ry="53.924"/>
		
			<ellipse transform="matrix(-0.1779 0.984 -0.984 -0.1779 1155.4192 -77.0627)" fill="#726F00" cx="609.899" cy="444.091" rx="83.645" ry="53.923"/>
	</g>
	<path fill="#FF504D" d="M349.244,583.23"/>
</g>
</svg>
