<?xml version="1.0" encoding="utf-8"?>
<!-- Generator: Adobe Illustrator 16.0.0, SVG Export Plug-In . SVG Version: 6.00 Build 0)  -->
<!DOCTYPE svg PUBLIC "-//W3C//DTD SVG 1.1//EN" "http://www.w3.org/Graphics/SVG/1.1/DTD/svg11.dtd">
<svg version="1.1" id="Capa_1" xmlns="http://www.w3.org/2000/svg" xmlns:xlink="http://www.w3.org/1999/xlink" x="0px" y="0px"
	 width="800px" height="800px" viewBox="0 0 800 800" enable-background="new 0 0 800 800" xml:space="preserve">
<path fill="none" stroke="#726F00" stroke-width="13" stroke-miterlimit="10" d="M400,600c110.457,0,200-89.543,200-200
	s-89.543-200-200-200s-200,89.543-200,200S289.543,600,400,600z M400,533.334c73.637,0,133.334-59.697,133.334-133.334
	c0-73.638-59.697-133.333-133.334-133.333c-73.638,0-133.333,59.695-133.333,133.333C266.667,473.636,326.362,533.334,400,533.334z"
	/>
<path fill="none" stroke="#726F00" stroke-width="12" stroke-miterlimit="10" d="M600,166.667
	c-18.409,0-33.333,14.924-33.333,33.333s14.924,33.334,33.333,33.334c18.41,0,33.334-14.925,33.334-33.334
	S618.41,166.667,600,166.667z"/>
<path fill="none" stroke="#726F00" stroke-width="15" stroke-miterlimit="10" d="M55.132,142.535
	c-21.798,42.783-21.798,98.788-21.798,210.799v93.333c0,112.01,0,168.017,21.798,210.797c19.175,37.633,49.771,68.229,87.403,87.403
	c42.783,21.8,98.788,21.8,210.799,21.8h93.333c112.01,0,168.017,0,210.797-21.8c37.633-19.174,68.229-49.771,87.403-87.403
	c21.8-42.78,21.8-98.787,21.8-210.797v-93.333c0-112.011,0-168.016-21.8-210.799c-19.174-37.632-49.771-68.229-87.403-87.403
	c-42.78-21.798-98.787-21.798-210.797-21.798h-93.333c-112.011,0-168.016,0-210.799,21.798
	C104.903,74.306,74.306,104.903,55.132,142.535z M446.667,100h-93.333c-57.105,0-95.926,0.053-125.931,2.504
	c-29.229,2.388-44.175,6.716-54.602,12.028c-25.089,12.783-45.486,33.181-58.27,58.27c-5.313,10.427-9.641,25.373-12.028,54.602
	C100.052,257.408,100,296.228,100,353.334v93.333c0,57.106,0.053,95.924,2.504,125.931c2.388,29.229,6.716,44.176,12.028,54.603
	c12.783,25.087,33.181,45.483,58.27,58.267c10.427,5.313,25.373,9.644,54.602,12.03c30.005,2.45,68.825,2.503,125.931,2.503h93.333
	c57.106,0,95.924-0.053,125.931-2.503c29.229-2.387,44.176-6.717,54.603-12.03c25.087-12.783,45.483-33.18,58.267-58.267
	c5.313-10.427,9.644-25.373,12.03-54.603c2.45-30.007,2.503-68.824,2.503-125.931v-93.333c0-57.105-0.053-95.926-2.503-125.931
	c-2.387-29.229-6.717-44.175-12.03-54.602c-12.783-25.089-33.18-45.486-58.267-58.27c-10.427-5.313-25.373-9.641-54.603-12.028
	C542.591,100.052,503.773,100,446.667,100z"/>
</svg>
