<?xml version="1.0" encoding="utf-8"?>
<!-- Generator: Adobe Illustrator 16.0.0, SVG Export Plug-In . SVG Version: 6.00 Build 0)  -->
<!DOCTYPE svg PUBLIC "-//W3C//DTD SVG 1.1//EN" "http://www.w3.org/Graphics/SVG/1.1/DTD/svg11.dtd">
<svg version="1.1" id="Capa_1" xmlns="http://www.w3.org/2000/svg" xmlns:xlink="http://www.w3.org/1999/xlink" x="0px" y="0px"
	 width="305px" height="117px" viewBox="0 0 305 117" enable-background="new 0 0 305 117" xml:space="preserve">
<g>
	<path fill-rule="evenodd" clip-rule="evenodd" fill="#726F00" stroke="#726F00" stroke-width="0.5" stroke-miterlimit="10" d="
		M161.353,35.945c-3.363-0.198-6.985-0.386-10.603-0.635c-2.172-0.149-3.82,0.561-5.187,2.34
		c-6.021,7.835-10.206,16.418-10.093,26.491c0.055,4.978,1.916,9.395,6.514,12.174c3.988,2.41,7.562,1.328,10.648-0.964
		c1.908-1.414,3.421-3.671,4.479-5.856c2.197-4.538,4.924-6.12,9.791-4.592c4.018,1.262,7.734,1.084,11.292-1.241
		c5.272-3.446,4.996-10.02,2.503-13.96c-2.597-4.105-6.323-6.534-11.108-7.238c-4.776-0.702-9.448-0.256-14.021,1.416
		c-7.32,2.676-14.049,10.429-12.559,19.918c0.221,1.413,1.309,3.015,2.479,3.865c1.221,0.888,4.374-0.661,5.543-2.301
		c0.869-1.218,1.676-2.483,2.455-3.762c2.632-4.323,7.036-6.136,11.925-4.837c1.26,0.335,2.502,0.745,3.743,1.148
		c1.801,0.588,3.721,0.01,4.471-1.373c0.976-1.797,0.689-4.194-1.099-5.126c-2.224-1.157-4.671-2.284-7.109-2.523
		c-3.013-0.296-6.116,0.332-9.229,0.565c1.293-0.387,2.612-0.835,3.959-1.176c3.721-0.94,7.364-0.285,10.965,0.688
		c2.004,0.541,4.64,4.479,4.483,6.536c-0.156,2.048-2.369,4.029-4.568,3.884c-1.356-0.09-2.745-0.35-4.025-0.802
		c-2.76-0.973-5.53-1.318-8.125,0.15c-1.14,0.645-2.046,1.874-2.79,3.013c-2.052,3.141-4.104,6.277-7.758,7.739
		c-3.482,1.395-6.791-0.55-7.475-4.296c-0.682-3.727-0.963-7.423,0.873-10.977c3.451-6.68,7.727-12.397,15.721-13.941
		c2.979-0.574,6.003-1.817,8.924-1.605c6.406,0.466,12.683,1.841,16.668,7.766c3.644,5.416,4.047,13.338-0.599,18.023
		c-4.474,4.511-9.784,5.653-15.796,4.057c-3.843-1.021-4.966-0.515-6.524,3.1c-3.383,7.845-12.099,11.726-19.128,8.313
		c-5.498-2.669-7.906-7.564-8.834-13.363c-0.643-4.028-0.443-8.016,0.756-11.895c1.742-5.635,3.818-11.153,7.502-15.857
		c1.342-1.714,2.837-3.444,4.619-4.628c1.217-0.807,3.081-1.021,4.604-0.896c2.966,0.243,5.913,0.837,8.836,1.441
		C159.583,34.958,160.603,35.617,161.353,35.945z"/>
	<path fill-rule="evenodd" clip-rule="evenodd" fill="#726F00" stroke="#726F00" stroke-width="0.5" stroke-miterlimit="10" d="
		M153.506,26.902c0.901-2.477,1.938-4.809,2.592-7.245c0.883-3.298,0.242-6.402-1.886-9.164c-2.063-2.675-5.854-2.575-8.007,0.083
		c-3.956,4.884-1.709,11.867,1.809,15.522c0.81,0.84,1.771,1.534,2.662,2.295c-0.082,0.129-0.162,0.258-0.244,0.387
		c-1.545-1.035-3.441-1.784-4.557-3.166c-2.088-2.59-3.994-5.493-4.066-8.984c-0.039-1.927,0.392-3.919,0.944-5.784
		c0.485-1.64,1.226-3.055,2.689-4.411c3.03-2.809,9.835-1.098,12.085,2.406c2.983,4.647,3.062,9.492,1.392,14.534
		C158.179,25.611,155.645,27.202,153.506,26.902z"/>
	<path fill-rule="evenodd" clip-rule="evenodd" fill="#726F00" stroke="#726F00" stroke-width="0.5" stroke-miterlimit="10" d="
		M138.16,33.652c-0.311-2.679-0.349-5.438-0.998-8.043c-0.916-3.678-3.516-5.987-7.222-6.841c-2.341-0.54-4.451,0.146-5.698,2.26
		c-1.266,2.146-1.049,4.598,0.094,6.647c2.469,4.427,5.99,7.647,11.309,8.305c0.101,0.012,0.188,0.144,0.2,0.681
		c-1.788-0.301-3.752-0.231-5.325-0.982c-3.059-1.46-6.271-3.147-7.853-6.262c-1.281-2.525-2.107-5.463-2.345-8.285
		c-0.225-2.657,4.016-5.701,7.294-5.92c8.231-0.552,14.021,6.866,13.786,14.242C141.338,31.478,139.678,33.357,138.16,33.652z"/>
	<path fill-rule="evenodd" clip-rule="evenodd" fill="#726F00" stroke="#726F00" stroke-width="0.5" stroke-miterlimit="10" d="
		M130.141,48.696c-1.402-2.124-2.574-4.256-4.09-6.11c-2.241-2.743-5.316-3.584-8.749-2.915c-2.359,0.46-3.779,2.089-3.998,4.39
		c-0.208,2.196,1.046,4.042,2.747,5.246c3.954,2.804,8.326,3.869,13.109,2.356c0.103-0.032,0.238,0.041,0.498,0.495
		c-1.705,0.513-3.394,1.379-5.119,1.458c-3.088,0.142-6.244-0.22-8.986-1.79c-2.493-1.428-4.445-3.599-5.705-6.166
		c-1.108-2.257,0.958-6.392,3.577-7.958c6.815-4.079,14.268-0.616,17.669,5.532C132.106,45.063,131.529,47.528,130.141,48.696z"/>
	<path fill-rule="evenodd" clip-rule="evenodd" fill="#726F00" stroke="#726F00" stroke-width="0.5" stroke-miterlimit="10" d="
		M170.018,31.277c1.919-1.708,3.855-3.256,5.582-5.01c2.46-2.499,2.752-7.431,0.778-10.272c-1.531-2.205-4.254-2.48-6.576-1.147
		c-3.445,1.978-5.074,9.116-3.842,13.241c0.292,0.977,0.613,1.946,0.92,2.918c-0.174,0.07-0.348,0.14-0.521,0.21
		c-0.729-1.724-1.863-3.397-2.088-5.185c-0.313-2.476-0.358-5.145,0.261-7.529c0.531-2.044,2.061-3.872,3.32-5.674
		c1.809-2.588,4.537-3.091,7.238-2.079c3.079,1.153,5.016,3.702,5.767,6.915c1.292,5.52-0.81,9.914-4.916,13.493
		C174.267,32.616,171.657,32.576,170.018,31.277z"/>
</g>
<path fill-rule="evenodd" clip-rule="evenodd" fill="#726F00" stroke="#726F00" stroke-width="0.5" stroke-miterlimit="10" d="
	M126.913,110.828c-1.627-3.723-2.973-6.803-4.319-9.885c-0.264,0.024-0.527,0.048-0.791,0.072c-0.138,2.03-0.307,4.06-0.408,6.093
	c-0.209,4.192-0.268,4.24-4.753,2.805c1.108-6.908,2.223-13.863,3.338-20.818c0.226-0.053,0.452-0.106,0.678-0.159
	c1.992,5.047,3.985,10.094,6.145,15.564c3.913-5.212,7.506-9.993,11.098-14.776c0.271,0.017,0.541,0.034,0.813,0.051
	c1.049,6.574,2.098,13.15,3.192,20.014c-1.707,0.26-3.326,0.507-5.265,0.804c0-4.035,0-7.746,0-11.456
	c-0.208-0.093-0.416-0.186-0.624-0.276C133.137,102.645,130.257,106.431,126.913,110.828z"/>
<path fill-rule="evenodd" clip-rule="evenodd" fill="#726F00" stroke="#726F00" stroke-width="0.5" stroke-miterlimit="10" d="
	M217.362,100.141c0.154-8.073,3.932-11.017,9.552-10.754c8.519,0.398,12.458,2.866,12.743,11.087
	c0.233,6.72-4.569,11.611-11.23,11.767C223.287,112.36,216.699,107.969,217.362,100.141z M220.166,101.109
	c-0.084,4.866,3.022,8.061,7.915,8.139c4.64,0.074,8.354-4.261,8.44-9.853c0.063-4.045-3.531-6.387-9.964-6.493
	C223.082,92.845,220.247,96.485,220.166,101.109z"/>
<path fill-rule="evenodd" clip-rule="evenodd" fill="#726F00" stroke="#726F00" stroke-width="0.5" stroke-miterlimit="10" d="
	M36.832,90.633c3.761-1.06,4.364-0.614,4.228,2.926c-0.141,3.671-0.244,7.344-0.373,11.016c-0.157,4.458-2.708,7.722-6.679,8.563
	c-3.494,0.741-7.598-1.858-7.99-5.396c-0.518-4.674-0.692-9.386-1.011-14.082c-0.091-1.346-0.171-2.692-0.255-4.024
	c3.57-0.934,4.243-0.19,4.166,3.224c-0.099,4.35,0.092,8.729,0.563,13.052c0.128,1.174,1.519,2.731,2.676,3.146
	c1.73,0.618,2.952-0.923,3.225-2.52c0.628-3.68,1.043-7.399,1.424-11.113C36.968,93.829,36.832,92.204,36.832,90.633z"/>
<path fill-rule="evenodd" clip-rule="evenodd" fill="#726F00" stroke="#726F00" stroke-width="0.5" stroke-miterlimit="10" d="
	M3.835,89.627c2.297,0,4.857-0.301,7.317,0.069c3.905,0.588,5.331,4.048,3.388,7.516c-0.205,0.366-0.388,0.742-0.58,1.11
	c1.003,1.141,2.101,2.121,2.87,3.314c2.211,3.43,0.989,7.307-2.906,8.363c-3.141,0.851-6.469,1.008-10.089,1.527
	C3.835,104.185,3.835,97.226,3.835,89.627z M6.605,105.203c0.647,0.921,1.199,2.534,1.958,2.639
	c2.633,0.361,5.082-1.306,5.183-3.026c0.104-1.796-1.694-3.156-4.088-3.291C7.055,101.376,7.021,103.024,6.605,105.203z
	 M9.444,91.946c-2.45,0.23-2.798,1.357-2.649,2.819c0.125,1.224-0.5,3.038,1.691,2.973c1.715-0.052,3.437-0.719,3.101-2.797
	C11.413,93.856,10.192,92.939,9.444,91.946z"/>
<path fill-rule="evenodd" clip-rule="evenodd" fill="#726F00" stroke="#726F00" stroke-width="0.5" stroke-miterlimit="10" d="
	M111.474,110.628c-1.9,0.274-3.143,0.547-4.393,0.584c-0.426,0.013-1-0.48-1.272-0.896c-0.313-0.479-0.363-1.126-0.531-1.699
	c-1.2-4.113-2.958-5.134-7.075-3.932c-0.621,0.182-1.23,0.854-1.568,1.455c-0.582,1.034-0.91,2.205-1.407,3.292
	c-1.352,2.954-1.55,3.009-5.016,1.477c3.665-7.321,7.325-14.632,11.341-22.653C104.978,95.98,108.128,103.083,111.474,110.628z
	 M103.627,101.834c-0.689-2.036-1.24-3.663-1.791-5.29c-0.274,0.011-0.547,0.021-0.821,0.03c-0.768,1.678-1.538,3.356-2.591,5.655
	C100.48,102.074,101.762,101.977,103.627,101.834z"/>
<path fill-rule="evenodd" clip-rule="evenodd" fill="#726F00" stroke="#726F00" stroke-width="0.5" stroke-miterlimit="10" d="
	M147.022,110.894c3.644-7.287,7.286-14.571,11.33-22.659c3.438,7.711,6.621,14.852,9.991,22.41c-2.066,0.3-3.544,0.515-5.309,0.771
	c-0.572-1.738-0.988-3.472-1.73-5.055c-0.357-0.762-1.405-1.815-2.008-1.736c-1.95,0.26-4.431-1.249-5.779,1.356
	c-0.587,1.136-0.96,2.38-1.494,3.544C150.696,112.411,150.381,112.495,147.022,110.894z M158.716,96.461
	c-0.287-0.012-0.576-0.022-0.863-0.033c-0.75,1.767-1.501,3.532-2.533,5.958c2.123-0.256,3.463-0.417,5.192-0.624
	C159.818,99.716,159.268,98.088,158.716,96.461z"/>
<path fill-rule="evenodd" clip-rule="evenodd" fill="#726F00" stroke="#726F00" stroke-width="0.5" stroke-miterlimit="10" d="
	M262.213,110.938c3.689-7.393,7.296-14.618,11.298-22.637c3.407,7.632,6.589,14.755,9.959,22.302
	c-1.881,0.269-3.257,0.536-4.645,0.614c-0.346,0.02-0.849-0.497-1.06-0.886c-0.275-0.512-0.32-1.144-0.486-1.717
	c-1.206-4.16-2.819-5.101-7.056-3.934c-0.624,0.171-1.25,0.828-1.589,1.424c-0.587,1.029-0.915,2.204-1.416,3.288
	C265.84,112.386,265.654,112.44,262.213,110.938z M275.621,101.846c-0.732-2.083-1.281-3.646-1.832-5.209
	c-0.253,0.02-0.507,0.041-0.761,0.063c-0.734,1.624-1.469,3.248-2.428,5.368C272.501,101.984,273.729,101.93,275.621,101.846z"/>
<path fill-rule="evenodd" clip-rule="evenodd" fill="#726F00" stroke="#726F00" stroke-width="0.5" stroke-miterlimit="10" d="
	M210.259,95.41c-2.974-0.928-5.529-2.177-8.181-2.435c-2.983-0.288-6.986,3.54-7.517,6.416c-0.611,3.308,0.856,7.141,4.039,7.986
	c2.824,0.751,6.039,0.315,9.043,0.021c2.687-0.261,2.859-0.305,2.602,2.64c-4.067,1.66-8.145,2.182-12.369,0.307
	c-4.195-1.863-7.012-5.937-6.521-9.748c0.792-6.132,3.857-9.832,9.085-10.54c3.219-0.435,6.477-0.63,9.303,1.695
	C212.046,93.647,212.116,93.834,210.259,95.41z"/>
<path fill-rule="evenodd" clip-rule="evenodd" fill="#726F00" stroke="#726F00" stroke-width="0.5" stroke-miterlimit="10" d="
	M85.208,95.371c-3.009-0.918-5.569-2.15-8.22-2.391c-2.997-0.271-6.987,3.564-7.491,6.43c-0.611,3.47,0.964,7.328,4.283,8.093
	c2.941,0.678,6.239,0.187,9.318-0.236c1.947-0.269,2.303,0.487,2.289,1.984c-0.002,0.334-0.325,0.839-0.628,0.972
	c-4.992,2.177-11.787,1.803-15.927-2.603c-4.202-4.47-2.808-12.013,1.645-15.511c3.76-2.954,10.598-3.076,14.388-0.151
	C86.995,93.602,86.977,93.885,85.208,95.371z"/>
<path fill-rule="evenodd" clip-rule="evenodd" fill="#726F00" stroke="#726F00" stroke-width="0.5" stroke-miterlimit="10" d="
	M255.071,112.366c-1.726,0-3.142,0-5.016,0c0-5.313-0.162-10.506,0.069-15.682c0.113-2.58-0.858-2.996-2.994-2.523
	c-0.64,0.141-1.317,0.116-2.24,0.187c-0.108-1.421-0.204-2.664-0.32-4.176c4.168,0,10.757,0.112,12.121,0.141
	s0.996,1.979,1.545,3.16c-4.341,0.936-4.313,0.932-3.835,4.845c0.278,2.293,0.535,4.594,0.646,6.899
	C255.157,107.501,255.071,109.796,255.071,112.366z"/>
<path fill-rule="evenodd" clip-rule="evenodd" fill="#726F00" stroke="#726F00" stroke-width="0.5" stroke-miterlimit="10" d="
	M186.084,92.683c-0.884,1.175-1.525,2.028-2.497,3.32c-0.508-0.749-0.743-1.52-1.181-1.658c-1.176-0.374-2.438-0.478-3.664-0.688
	c0.012,1.319-0.424,2.892,0.145,3.896c0.761,1.342,2.388,2.162,3.476,3.358c1.015,1.112,2.128,2.304,2.636,3.671
	c1.12,3.021-0.515,6.542-3.058,7.239c-3.534,0.97-8.439-1.004-9.178-3.853c-0.164-0.632,0.404-1.669,0.952-2.174
	c0.245-0.226,1.296,0.357,1.945,0.652c1.176,0.532,2.303,1.533,3.489,1.597c1.912,0.102,2.838-1.742,1.838-3.423
	c-0.688-1.161-1.853-2.04-2.533-3.205c-1.127-1.929-2.479-3.891-2.935-6.011c-0.787-3.661,2.275-6.188,5.811-5.029
	C182.902,90.89,184.339,91.821,186.084,92.683z"/>
<path fill-rule="evenodd" clip-rule="evenodd" fill="#726F00" stroke="#726F00" stroke-width="0.5" stroke-miterlimit="10" d="
	M60.892,92.822c-0.745,1-1.382,1.856-2.477,3.327c-0.458-0.811-0.64-1.626-1.053-1.767c-1.163-0.397-2.419-0.518-3.64-0.746
	c-0.007,1.314-0.448,2.854,0.089,3.883c0.67,1.283,2.205,2.092,3.259,3.207c0.981,1.037,2.097,2.085,2.667,3.348
	c1.365,3.026-0.013,6.78-2.573,7.683c-3.38,1.189-8.593-0.825-9.43-3.772c-0.17-0.598,0.227-1.822,0.677-2.014
	c0.562-0.236,1.488,0.212,2.189,0.52c1.114,0.485,2.145,1.494,3.262,1.575c2.188,0.158,3.242-1.821,2.05-3.668
	c-0.732-1.136-1.797-2.054-2.677-3.099c-0.71-0.845-1.512-1.658-2.02-2.619c-1.498-2.834-1.164-5.985,0.669-7.61
	c1.625-1.441,4.024-1.316,6.922,0.385C59.457,91.835,60.069,92.279,60.892,92.822z"/>
<path fill-rule="evenodd" clip-rule="evenodd" fill="#726F00" stroke="#726F00" stroke-width="0.5" stroke-miterlimit="10" d="
	M301.41,92.608c-0.932,1.239-1.57,2.088-2.608,3.468c-0.501-0.806-0.717-1.611-1.146-1.748c-1.171-0.371-2.786-1.03-3.581-0.536
	c-1.432,0.89-1.116,2.584-0.003,3.801c1.034,1.132,2.271,2.074,3.372,3.147c0.849,0.83,1.831,1.621,2.392,2.631
	c1.685,3.036,0.566,7.104-2.119,8.275c-3.106,1.354-8.563-0.526-9.568-3.441c-0.224-0.65,0.339-1.572,0.541-2.369
	c0.752,0.203,1.544,0.315,2.248,0.626c1.112,0.492,2.134,1.516,3.25,1.604c2.159,0.171,3.238-1.866,2.028-3.694
	c-0.839-1.27-2.26-2.187-2.97-3.504c-1.098-2.036-2.303-4.224-2.561-6.452c-0.334-2.878,2.535-4.918,5.412-4.142
	C297.847,90.746,299.458,91.729,301.41,92.608z"/>
</svg>
