<?xml version="1.0" encoding="utf-8"?>
<!-- Generator: Adobe Illustrator 16.0.0, SVG Export Plug-In . SVG Version: 6.00 Build 0)  -->
<!DOCTYPE svg PUBLIC "-//W3C//DTD SVG 1.1//EN" "http://www.w3.org/Graphics/SVG/1.1/DTD/svg11.dtd">
<svg version="1.1" id="Layer_1" xmlns="http://www.w3.org/2000/svg" xmlns:xlink="http://www.w3.org/1999/xlink" x="0px" y="0px"
	 width="800px" height="800px" viewBox="0 0 800 800" enable-background="new 0 0 800 800" xml:space="preserve">
<g id="XMLID_834_">
	<path id="XMLID_835_" fill="#726F00" d="M210.846,426.08h87.693v361.018c0,7.127,5.775,12.902,12.902,12.902H460.13
		c7.127,0,12.903-5.775,12.903-12.902V427.781h100.81c6.555,0,12.07-4.919,12.818-11.43l15.311-132.909
		c0.421-3.656-0.737-7.318-3.185-10.062c-2.448-2.746-5.953-4.317-9.631-4.317H473.038V185.75c0-25.115,13.522-37.851,40.196-37.851
		c3.801,0,75.922,0,75.922,0c7.128,0,12.903-5.778,12.903-12.903V12.999c0-7.128-5.775-12.903-12.903-12.903H484.524
		C483.786,0.059,482.147,0,479.732,0c-18.155,0-81.26,3.564-131.107,49.422c-55.231,50.818-47.554,111.665-45.719,122.215v97.424
		h-92.06c-7.128,0-12.903,5.775-12.903,12.903v131.211C197.943,420.302,203.719,426.08,210.846,426.08z"/>
</g>
</svg>
