<?xml version="1.0" encoding="utf-8"?>
<!-- Generator: Adobe Illustrator 16.0.0, SVG Export Plug-In . SVG Version: 6.00 Build 0)  -->
<!DOCTYPE svg PUBLIC "-//W3C//DTD SVG 1.1//EN" "http://www.w3.org/Graphics/SVG/1.1/DTD/svg11.dtd">
<svg version="1.1" id="Capa_1" xmlns="http://www.w3.org/2000/svg" xmlns:xlink="http://www.w3.org/1999/xlink" x="0px" y="0px"
	 width="800px" height="800px" viewBox="0 0 800 800" enable-background="new 0 0 800 800" xml:space="preserve">
<g>
	<path fill="#726F00" d="M55.132,142.535c-21.798,42.783-21.798,98.788-21.798,210.799v93.334c0,112.01,0,168.017,21.798,210.797
		c19.176,37.633,49.771,68.229,87.403,87.402c42.783,21.801,98.788,21.801,210.799,21.801h93.334c112.01,0,168.017,0,210.797-21.801
		c37.633-19.174,68.229-49.771,87.402-87.402c21.801-42.78,21.801-98.787,21.801-210.797v-93.334
		c0-112.011,0-168.016-21.801-210.799c-19.174-37.632-49.771-68.229-87.402-87.403c-42.78-21.798-98.787-21.798-210.797-21.798
		h-93.334c-112.011,0-168.016,0-210.799,21.798C104.903,74.306,74.306,104.903,55.132,142.535z"/>
	<path fill="#726F00" stroke="#FFFFFF" stroke-width="16" stroke-miterlimit="10" d="M446.668,100h-93.334
		c-57.104,0-95.926,0.054-125.931,2.504c-29.229,2.389-44.175,6.717-54.603,12.028c-25.089,12.783-45.485,33.181-58.27,58.271
		c-5.313,10.427-9.641,25.372-12.028,54.602c-2.45,30.004-2.503,68.824-2.503,125.931v93.333c0,57.105,0.054,95.924,2.504,125.931
		c2.389,29.229,6.717,44.176,12.028,54.603c12.783,25.087,33.181,45.483,58.271,58.268c10.427,5.313,25.372,9.644,54.602,12.029
		c30.005,2.45,68.825,2.504,125.931,2.504h93.334c57.105,0,95.924-0.054,125.931-2.504c29.229-2.387,44.176-6.717,54.603-12.029
		c25.087-12.783,45.483-33.181,58.268-58.268c5.313-10.427,9.644-25.373,12.03-54.603c2.449-30.007,2.503-68.824,2.503-125.931
		v-93.333c0-57.105-0.054-95.927-2.503-125.932c-2.388-29.229-6.718-44.175-12.03-54.603c-12.783-25.089-33.181-45.485-58.268-58.27
		c-10.427-5.313-25.373-9.641-54.603-12.028C542.592,100.052,503.773,100,446.668,100z"/>
</g>
<g>
	<g>
		<circle fill="#FFFFFF" cx="398" cy="416.666" r="200"/>
		<circle fill="#726F00" cx="398" cy="416.666" r="133.333"/>
	</g>
	<path fill="#FFFFFF" d="M598,183.333c-18.408,0-33.332,14.924-33.332,33.333S579.592,250,598,250
		c18.41,0,33.334-14.925,33.334-33.334S616.41,183.333,598,183.333z"/>
	<path fill="#FFFFFF" d="M610.5,207.166"/>
</g>
</svg>
