<?xml version="1.0" encoding="utf-8"?>
<!-- Generator: Adobe Illustrator 16.0.0, SVG Export Plug-In . SVG Version: 6.00 Build 0)  -->
<!DOCTYPE svg PUBLIC "-//W3C//DTD SVG 1.1//EN" "http://www.w3.org/Graphics/SVG/1.1/DTD/svg11.dtd">
<svg version="1.1" id="Capa_1" xmlns="http://www.w3.org/2000/svg" xmlns:xlink="http://www.w3.org/1999/xlink" x="0px" y="0px"
	 width="530px" height="90px" viewBox="-111 13 530 90" enable-background="new -111 13 530 90" xml:space="preserve">
<g>
	<path fill="#726F00" stroke="#726F00" stroke-width="0.5" stroke-miterlimit="10" d="M378.05,50.517
		c-3.521-0.207-7.315-0.404-11.104-0.665c-2.274-0.156-4,0.588-5.433,2.45c-6.305,8.205-10.688,17.194-10.568,27.742
		c0.057,5.214,2.006,9.841,6.821,12.749c4.177,2.524,7.919,1.391,11.15-1.009c1.998-1.48,3.583-3.845,4.691-6.132
		c2.301-4.753,5.156-6.41,10.254-4.811c4.207,1.323,8.1,1.136,11.823-1.299c5.522-3.607,5.233-10.492,2.622-14.619
		c-2.72-4.299-6.621-6.843-11.633-7.58c-5.002-0.735-9.895-0.268-14.683,1.483c-7.666,2.802-14.712,10.921-13.153,20.86
		c0.232,1.479,1.372,3.155,2.598,4.048c1.278,0.929,4.579-0.693,5.805-2.412c0.91-1.274,1.755-2.6,2.57-3.938
		c2.757-4.526,7.368-6.425,12.489-5.065c1.318,0.352,2.62,0.779,3.92,1.203c1.886,0.616,3.896,0.011,4.682-1.438
		c1.022-1.881,0.722-4.392-1.151-5.369c-2.328-1.211-4.891-2.391-7.444-2.641c-3.155-0.311-6.405,0.348-9.666,0.592
		c1.354-0.406,2.735-0.875,4.146-1.232c3.898-0.984,7.714-0.298,11.483,0.721c2.1,0.566,4.859,4.689,4.696,6.844
		c-0.163,2.146-2.481,4.22-4.784,4.068c-1.421-0.094-2.875-0.365-4.216-0.841c-2.89-1.019-5.791-1.379-8.509,0.157
		c-1.194,0.676-2.143,1.962-2.922,3.157c-2.148,3.288-4.298,6.571-8.124,8.104c-3.646,1.46-7.111-0.577-7.828-4.5
		c-0.715-3.903-1.009-7.772,0.913-11.495c3.615-6.995,8.093-12.982,16.465-14.599c3.12-0.601,6.286-1.903,9.346-1.681
		c6.708,0.488,13.281,1.928,17.455,8.133c3.815,5.671,4.238,13.968-0.627,18.874c-4.686,4.724-10.246,5.92-16.543,4.249
		c-4.022-1.07-5.199-0.54-6.831,3.246c-3.543,8.216-12.672,12.28-20.032,8.705c-5.758-2.794-8.279-7.922-9.251-13.994
		c-0.675-4.219-0.464-8.395,0.791-12.456c1.825-5.902,3.998-11.68,7.857-16.606c1.405-1.795,2.971-3.606,4.837-4.847
		c1.273-0.845,3.227-1.069,4.821-0.938c3.105,0.254,6.191,0.876,9.254,1.509C376.196,49.483,377.265,50.174,378.05,50.517z"/>
	<path fill="#726F00" stroke="#726F00" stroke-width="0.5" stroke-miterlimit="10" d="M369.832,41.047
		c0.943-2.594,2.028-5.036,2.714-7.587c0.925-3.454,0.254-6.705-1.976-9.597c-2.16-2.801-6.131-2.696-8.385,0.087
		c-4.143,5.115-1.79,12.428,1.895,16.255c0.849,0.88,1.854,1.606,2.788,2.403c-0.087,0.135-0.17,0.27-0.256,0.405
		c-1.618-1.084-3.603-1.868-4.771-3.316c-2.187-2.712-4.184-5.752-4.259-9.408c-0.042-2.018,0.41-4.104,0.988-6.057
		c0.509-1.718,1.284-3.199,2.816-4.62c3.174-2.941,10.3-1.15,12.656,2.519c3.123,4.867,3.206,9.941,1.457,15.221
		C374.726,39.695,372.071,41.361,369.832,41.047z"/>
	<path fill="#726F00" stroke="#726F00" stroke-width="0.5" stroke-miterlimit="10" d="M353.761,48.116
		c-0.325-2.806-0.365-5.695-1.045-8.423c-0.959-3.852-3.683-6.27-7.563-7.164c-2.45-0.565-4.662,0.153-5.967,2.367
		c-1.326,2.247-1.099,4.815,0.099,6.961c2.585,4.636,6.273,8.008,11.842,8.697c0.106,0.013,0.198,0.151,0.211,0.713
		c-1.873-0.315-3.93-0.242-5.577-1.028c-3.204-1.529-6.567-3.295-8.224-6.558c-1.341-2.645-2.206-5.721-2.456-8.677
		c-0.235-2.783,4.206-5.97,7.639-6.2c8.62-0.578,14.683,7.191,14.438,14.915C357.088,45.839,355.351,47.807,353.761,48.116z"/>
	<path fill="#726F00" stroke="#726F00" stroke-width="0.5" stroke-miterlimit="10" d="M345.362,63.87
		c-1.469-2.225-2.696-4.457-4.282-6.398c-2.347-2.873-5.568-3.753-9.161-3.052c-2.472,0.481-3.959,2.188-4.188,4.597
		c-0.219,2.3,1.096,4.232,2.877,5.494c4.141,2.936,8.719,4.05,13.729,2.468c0.108-0.035,0.249,0.043,0.521,0.518
		c-1.786,0.538-3.555,1.444-5.361,1.527c-3.233,0.147-6.539-0.231-9.411-1.875c-2.609-1.496-4.654-3.77-5.975-6.458
		c-1.159-2.363,1.005-6.693,3.747-8.333c7.138-4.271,14.942-0.645,18.503,5.793C347.42,60.065,346.816,62.646,345.362,63.87z"/>
	<path fill="#726F00" stroke="#726F00" stroke-width="0.5" stroke-miterlimit="10" d="M387.123,45.628
		c2.012-1.789,4.037-3.41,5.846-5.246c2.577-2.617,2.882-7.782,0.814-10.758c-1.602-2.309-4.454-2.597-6.886-1.201
		c-3.607,2.071-5.313,9.546-4.024,13.866c0.307,1.024,0.644,2.039,0.964,3.056c-0.183,0.074-0.363,0.147-0.545,0.22
		c-0.764-1.805-1.951-3.558-2.187-5.43c-0.328-2.593-0.375-5.388,0.273-7.885c0.555-2.14,2.159-4.055,3.476-5.941
		c1.896-2.71,4.752-3.237,7.58-2.177c3.226,1.207,5.254,3.876,6.04,7.242c1.353,5.78-0.848,10.382-5.147,14.13
		C391.574,47.031,388.841,46.989,387.123,45.628z"/>
</g>
<path fill="#726F00" stroke="#726F00" stroke-width="0.5" stroke-miterlimit="10" d="M73.499,74.903
	c-2.202-5.133-4.022-9.382-5.842-13.632c-0.358,0.031-0.714,0.065-1.07,0.099c-0.187,2.8-0.416,5.6-0.552,8.402
	c-0.283,5.782-0.363,5.848-6.43,3.87c1.499-9.528,3.007-19.121,4.516-28.711c0.306-0.075,0.612-0.148,0.918-0.221
	c2.694,6.96,5.39,13.921,8.313,21.466c5.293-7.188,10.154-13.783,15.012-20.378c0.367,0.023,0.732,0.046,1.1,0.07
	c1.42,9.068,2.839,18.136,4.318,27.603c-2.309,0.358-4.499,0.699-7.122,1.11c0-5.565,0-10.683,0-15.802
	c-0.281-0.128-0.563-0.256-0.844-0.379C81.918,63.616,78.022,68.841,73.499,74.903z"/>
<path fill="#726F00" stroke="#726F00" stroke-width="0.5" stroke-miterlimit="10" d="M195.854,60.164
	c0.209-11.133,5.32-15.194,12.924-14.832c11.524,0.55,16.852,3.954,17.238,15.292c0.315,9.268-6.182,16.013-15.191,16.229
	C203.871,77.017,194.959,70.96,195.854,60.164z M199.649,61.5c-0.113,6.71,4.087,11.117,10.708,11.226
	c6.276,0.102,11.302-5.879,11.416-13.59c0.086-5.58-4.775-8.809-13.479-8.955C203.595,50.103,199.758,55.121,199.649,61.5z"/>
<path fill="#726F00" stroke="#726F00" stroke-width="0.5" stroke-miterlimit="10" d="M-48.362,47.051
	c5.088-1.463,5.904-0.846,5.72,4.035c-0.19,5.064-0.33,10.13-0.504,15.194c-0.213,6.148-3.663,10.649-9.036,11.811
	c-4.727,1.021-10.278-2.564-10.808-7.442c-0.701-6.446-0.937-12.947-1.368-19.422c-0.123-1.855-0.231-3.711-0.345-5.549
	c4.829-1.289,5.74-0.264,5.636,4.445c-0.134,6,0.125,12.039,0.762,18.002c0.173,1.619,2.055,3.766,3.62,4.34
	c2.34,0.852,3.993-1.274,4.362-3.477c0.85-5.076,1.411-10.205,1.927-15.328C-48.179,51.459-48.362,49.218-48.362,47.051z"/>
<path fill="#726F00" stroke="#726F00" stroke-width="0.5" stroke-miterlimit="10" d="M-93,45.664c3.107,0,6.57-0.416,9.897,0.094
	c5.284,0.813,7.212,5.584,4.584,10.367c-0.278,0.505-0.525,1.023-0.785,1.531c1.356,1.573,2.842,2.926,3.883,4.571
	c2.991,4.729,1.337,10.078-3.931,11.533c-4.249,1.173-8.751,1.391-13.648,2.105C-93,65.742-93,56.146-93,45.664z M-89.252,67.146
	c0.875,1.271,1.622,3.495,2.648,3.641c3.562,0.498,6.875-1.802,7.012-4.173c0.141-2.479-2.291-4.354-5.53-4.539
	C-88.644,61.868-88.69,64.141-89.252,67.146z M-85.412,48.861c-3.314,0.318-3.785,1.872-3.584,3.889
	c0.169,1.687-0.676,4.188,2.288,4.1c2.321-0.071,4.65-0.991,4.195-3.857C-82.749,51.496-84.401,50.232-85.412,48.861z"/>
<path fill="#726F00" stroke="#726F00" stroke-width="0.5" stroke-miterlimit="10" d="M52.613,74.628
	c-2.57,0.378-4.252,0.755-5.943,0.805c-0.577,0.019-1.353-0.661-1.721-1.234c-0.423-0.661-0.491-1.554-0.718-2.344
	c-1.623-5.673-4.001-7.082-9.571-5.423c-0.84,0.251-1.664,1.178-2.121,2.008c-0.787,1.425-1.231,3.041-1.903,4.539
	c-1.829,4.075-2.097,4.15-6.786,2.037c4.958-10.098,9.91-20.18,15.343-31.243C43.825,54.427,48.085,64.223,52.613,74.628z
	 M41.997,62.5c-0.932-2.809-1.678-5.052-2.423-7.297c-0.371,0.015-0.74,0.029-1.111,0.042c-1.039,2.313-2.08,4.628-3.505,7.799
	C37.74,62.831,39.475,62.696,41.997,62.5z"/>
<path fill="#726F00" stroke="#726F00" stroke-width="0.5" stroke-miterlimit="10" d="M100.7,74.995
	c4.93-10.05,9.858-20.097,15.327-31.252c4.652,10.635,8.958,20.484,13.516,30.907c-2.794,0.415-4.793,0.712-7.181,1.064
	c-0.774-2.397-1.337-4.789-2.34-6.972c-0.483-1.051-1.902-2.503-2.717-2.396c-2.638,0.359-5.994-1.721-7.817,1.87
	c-0.795,1.567-1.299,3.283-2.021,4.891C105.671,77.088,105.246,77.203,100.7,74.995z M116.52,55.089
	c-0.386-0.016-0.778-0.029-1.166-0.046c-1.015,2.438-2.032,4.872-3.427,8.219c2.872-0.354,4.684-0.576,7.023-0.861
	C118.012,59.577,117.267,57.333,116.52,55.089z"/>
<path fill="#726F00" stroke="#726F00" stroke-width="0.5" stroke-miterlimit="10" d="M256.529,75.056
	c4.991-10.196,9.871-20.16,15.286-31.221c4.608,10.527,8.912,20.35,13.472,30.759c-2.547,0.371-4.408,0.738-6.285,0.846
	c-0.469,0.027-1.147-0.683-1.433-1.221c-0.373-0.707-0.434-1.577-0.657-2.369c-1.633-5.737-3.815-7.034-9.547-5.426
	c-0.844,0.238-1.691,1.143-2.148,1.964c-0.796,1.421-1.238,3.042-1.915,4.536C261.437,77.054,261.185,77.127,256.529,75.056z
	 M274.669,62.515c-0.991-2.871-1.735-5.026-2.479-7.184c-0.341,0.027-0.686,0.058-1.03,0.088c-0.991,2.239-1.987,4.478-3.284,7.404
	C270.447,62.707,272.108,62.632,274.669,62.515z"/>
<path fill="#726F00" stroke="#726F00" stroke-width="0.5" stroke-miterlimit="10" d="M186.246,53.639
	c-4.022-1.279-7.478-3.003-11.066-3.358c-4.033-0.396-9.45,4.883-10.168,8.848c-0.827,4.564,1.157,9.851,5.463,11.016
	c3.82,1.036,8.17,0.434,12.232,0.029c3.636-0.361,3.869-0.42,3.521,3.642c-5.5,2.287-11.019,3.009-16.731,0.423
	c-5.676-2.57-9.487-8.189-8.822-13.443c1.07-8.459,5.219-13.561,12.29-14.539c4.355-0.6,8.763-0.867,12.586,2.338
	C188.665,51.208,188.76,51.466,186.246,53.639z"/>
<path fill="#726F00" stroke="#726F00" stroke-width="0.5" stroke-miterlimit="10" d="M17.081,53.585
	c-4.07-1.265-7.534-2.964-11.12-3.296c-4.054-0.375-9.452,4.914-10.134,8.867C-5,63.941-2.869,69.263,1.621,70.317
	c3.979,0.937,8.44,0.258,12.605-0.325c2.634-0.37,3.115,0.671,3.097,2.736c-0.003,0.461-0.44,1.157-0.85,1.34
	C9.72,77.072,0.527,76.556-5.073,70.48c-5.684-6.166-3.798-16.568,2.226-21.393c5.086-4.075,14.336-4.242,19.464-0.209
	C19.498,51.146,19.474,51.536,17.081,53.585z"/>
<path fill="#726F00" stroke="#726F00" stroke-width="0.5" stroke-miterlimit="10" d="M246.867,77.025c-2.333,0-4.249,0-6.785,0
	c0-7.328-0.219-14.491,0.094-21.629c0.152-3.559-1.161-4.132-4.05-3.479c-0.865,0.195-1.783,0.161-3.029,0.258
	c-0.147-1.959-0.276-3.674-0.434-5.759c5.638,0,14.552,0.155,16.396,0.193c1.845,0.041,1.347,2.73,2.091,4.359
	c-5.873,1.292-5.836,1.285-5.189,6.684c0.378,3.163,0.725,6.335,0.875,9.514C246.985,70.315,246.867,73.481,246.867,77.025z"/>
<path fill="#726F00" stroke="#726F00" stroke-width="0.5" stroke-miterlimit="10" d="M153.544,49.879
	c-1.196,1.619-2.064,2.797-3.378,4.579c-0.688-1.033-1.005-2.098-1.598-2.287c-1.59-0.517-3.298-0.66-4.957-0.95
	c0.016,1.821-0.574,3.989,0.196,5.374c1.029,1.852,3.231,2.981,4.702,4.632c1.373,1.535,2.879,3.178,3.566,5.063
	c1.515,4.167-0.696,9.023-4.136,9.982c-4.782,1.34-11.417-1.383-12.416-5.313c-0.222-0.871,0.545-2.302,1.286-2.999
	c0.332-0.311,1.754,0.492,2.632,0.899c1.591,0.735,3.116,2.115,4.719,2.203c2.586,0.141,3.838-2.403,2.485-4.721
	c-0.929-1.602-2.505-2.813-3.426-4.419c-1.524-2.661-3.353-5.368-3.969-8.291c-1.064-5.05,3.077-8.536,7.861-6.937
	C149.24,47.406,151.184,48.689,153.544,49.879z"/>
<path fill="#726F00" stroke="#726F00" stroke-width="0.5" stroke-miterlimit="10" d="M-15.814,50.071
	c-1.007,1.379-1.87,2.559-3.351,4.588c-0.619-1.119-0.866-2.242-1.424-2.437c-1.573-0.548-3.272-0.715-4.924-1.028
	c-0.01,1.812-0.606,3.937,0.12,5.355c0.907,1.771,2.983,2.885,4.409,4.424c1.328,1.43,2.837,2.873,3.608,4.616
	c1.847,4.173-0.017,9.35-3.481,10.597c-4.572,1.639-11.624-1.138-12.757-5.203c-0.229-0.825,0.308-2.512,0.917-2.777
	c0.761-0.326,2.013,0.294,2.961,0.718c1.507,0.668,2.901,2.06,4.413,2.172c2.958,0.219,4.385-2.512,2.773-5.059
	c-0.991-1.567-2.432-2.834-3.623-4.275c-0.96-1.165-2.045-2.287-2.732-3.611c-2.027-3.909-1.575-8.254,0.904-10.495
	c2.199-1.988,5.445-1.816,9.365,0.531C-17.755,48.709-16.928,49.322-15.814,50.071z"/>
<path fill="#726F00" stroke="#726F00" stroke-width="0.5" stroke-miterlimit="10" d="M309.555,49.774
	c-1.259,1.711-2.124,2.879-3.527,4.784c-0.678-1.113-0.971-2.222-1.55-2.411c-1.585-0.512-3.771-1.421-4.845-0.739
	c-1.938,1.227-1.511,3.564-0.004,5.243c1.397,1.56,3.072,2.859,4.561,4.34c1.149,1.144,2.478,2.236,3.236,3.628
	c2.279,4.188,0.766,9.798-2.868,11.413c-4.2,1.867-11.581-0.726-12.942-4.746c-0.302-0.896,0.459-2.168,0.731-3.268
	c1.018,0.281,2.09,0.434,3.042,0.863c1.504,0.679,2.888,2.093,4.396,2.213c2.921,0.234,4.379-2.573,2.742-5.095
	c-1.134-1.753-3.056-3.016-4.017-4.832c-1.483-2.809-3.115-5.826-3.464-8.899c-0.452-3.969,3.43-6.783,7.322-5.713
	C304.736,47.208,306.913,48.562,309.555,49.774z"/>
</svg>
